<svg width="1920" height="1080" viewBox="0 0 1920 1080" fill="none" xmlns="http://www.w3.org/2000/svg">
<rect x="1738" width="183" height="125" fill="#0079C2"/>
<path d="M1805.14 69.3959H1813.41V72.0506H1809.48V90.8106H1805.14V69.3959Z" fill="white"/>
<path d="M1818.29 82.8022L1819.05 72.0949H1819.32L1820.08 82.8022H1818.29ZM1813.5 90.8106H1817.75L1818.15 85.103H1820.21L1820.61 90.8106H1824.86L1822.62 69.3959H1815.83L1813.5 90.8106Z" fill="white"/>
<path d="M1830.98 83.3332V87.3595C1830.98 87.8904 1831.43 88.0674 1831.65 88.0674C1832.06 88.0674 1832.32 87.7135 1832.32 87.3595V82.3598C1832.32 81.6961 1832.19 80.9439 1830.58 80.9439H1828.84V78.5989H1830.67C1831.88 78.5989 1832.32 78.3335 1832.32 77.0061V72.7586C1832.32 72.4046 1832.06 72.0506 1831.65 72.0506C1831.39 72.0506 1830.98 72.1834 1830.98 72.7586V76.2539H1826.65V73.201C1826.65 71.6967 1826.83 69.3959 1829.87 69.3959H1833.44C1836.48 69.3959 1836.66 71.7409 1836.66 73.201V76.6079C1836.66 78.9529 1835.01 79.5723 1833.71 79.5281V79.7493C1836.62 79.6608 1836.66 81.8731 1836.66 82.6252V86.9613C1836.66 88.4656 1836.48 90.7664 1833.44 90.7664H1829.87C1826.83 90.7664 1826.65 88.4656 1826.65 86.9613V83.2889H1830.98" fill="white"/>
<path d="M1839.52 69.3959H1849.54V90.8106H1845.2V72.0949H1843.81V90.8549H1839.48V69.3959" fill="white"/>
<path d="M1856.73 81.2094V72.0949H1857.31C1857.76 72.0949 1858.12 72.4931 1858.12 73.1568V80.1033C1858.12 80.767 1857.76 81.1652 1857.31 81.1652H1856.73V81.2094ZM1852.4 90.8107H1856.73V83.5102H1859.24C1862.23 83.5102 1862.46 81.2094 1862.46 79.7051V73.2453C1862.46 71.7409 1862.28 69.4402 1859.24 69.4402H1852.44V90.8107" fill="white"/>
<path d="M1870.95 87.3595C1870.95 87.7135 1870.68 88.0674 1870.28 88.0674C1870.01 88.0674 1869.61 87.8905 1869.61 87.3595V72.7586C1869.61 72.1834 1870.06 72.0507 1870.28 72.0507C1870.68 72.0507 1870.95 72.4046 1870.95 72.7586V87.3595ZM1865.27 87.0056C1865.27 88.5099 1865.45 90.8107 1868.49 90.8107H1872.11C1875.11 90.8107 1875.33 88.5099 1875.33 87.0056V73.2453C1875.33 71.7409 1875.15 69.4402 1872.11 69.4402H1868.49C1865.5 69.4402 1865.27 71.7852 1865.27 73.2453V87.0056Z" fill="white"/>
<path d="M1889.37 69.3959H1895V90.8106H1890.66V77.4043H1890.48L1888.25 90.8106H1884.81L1882.57 77.4043H1882.39V90.8106H1878.06V69.3959H1883.73L1886.55 84.4393L1889.37 69.3959Z" fill="white"/>
<path d="M1799.56 40.1498C1798.22 34.3979 1794.91 29.7522 1794.46 29C1793.75 30.0619 1791.11 34.1767 1789.72 38.7782C1788.25 43.8664 1788.02 48.4237 1788.56 52.8482C1789.05 57.317 1790.97 61.8743 1790.97 61.8743C1792 64.2635 1793.48 66.8297 1794.5 68.1128C1795.94 66.2545 1799.29 60.7239 1800.32 53.4676C1800.85 49.3971 1800.85 45.8575 1799.56 40.1498ZM1794.46 66.6528C1793.79 65.4581 1792.81 63.1574 1792.72 59.5735C1792.67 56.1224 1794.1 53.1579 1794.5 52.5385C1794.86 53.1579 1796.07 55.7242 1796.2 59.2638C1796.25 62.6707 1795.13 65.4139 1794.46 66.6528ZM1799.15 49.8838C1799.11 52.096 1798.84 54.3968 1798.48 55.7684C1798.62 53.3792 1798.3 50.0165 1797.77 47.406C1797.23 44.7956 1795.67 40.4153 1794.42 38.38C1793.25 40.3268 1791.82 44.0876 1791.11 47.406C1790.35 50.6802 1790.35 54.6623 1790.35 55.8569C1790.17 54.8392 1789.63 51.2554 1789.81 47.6715C1789.95 44.7071 1790.62 41.6542 1791.02 40.2383C1792.49 35.5483 1794.15 32.5396 1794.46 32.0972C1794.77 32.5839 1796.87 36.2562 1797.95 40.1498C1798.98 43.9991 1799.2 47.7158 1799.15 49.8838Z" fill="white"/>
<path d="M1796.7 69.3959H1786.64V76.077C1786.64 76.077 1786.64 76.077 1786.68 76.077C1789.05 73.732 1792.9 73.732 1795.26 76.077C1797.63 78.422 1797.63 82.2271 1795.26 84.5721C1795.26 84.5721 1795.26 84.5721 1795.22 84.6163C1795.22 84.6163 1795.18 84.6163 1795.18 84.6606C1792.81 86.9613 1789.72 88.1559 1786.64 88.1559C1783.55 88.1559 1780.42 87.0056 1778.05 84.6606C1773.9 80.5458 1773.36 74.1302 1776.58 69.4402C1777.03 68.8208 1777.52 68.2013 1778.05 67.6704C1780.42 65.3254 1783.51 64.175 1786.64 64.175V48.114C1774.7 48.114 1765 57.6709 1765 69.4844C1765 81.2979 1774.66 90.8992 1786.64 90.8992C1792.85 90.8992 1798.48 88.2887 1802.42 84.1296V69.5287H1796.7" fill="white"/>
<line x1="52" y1="57" x2="86" y2="57" stroke="#0079C2" stroke-width="2" stroke-linecap="round"/>
<line x1="52" y1="67" x2="74.7869" y2="67" stroke="#0079C2" stroke-width="2" stroke-linecap="round"/>
<path d="M143.85 65.7C146.529 65.7 148.7 63.5286 148.7 60.85C148.7 58.1714 146.529 56 143.85 56C141.171 56 139 58.1714 139 60.85C139 63.5286 141.171 65.7 143.85 65.7Z" stroke="#0079C2" stroke-width="1.5" stroke-linecap="round" stroke-linejoin="round"/>
<path d="M151.933 68.125L147.892 64.8917" stroke="#0079C2" stroke-width="1.5" stroke-linecap="round" stroke-linejoin="round"/>
<path d="M478.779 67H477.612V61.0381H474.292V67H473.13V59.998H478.779V67ZM483.15 64.4609V67H481.993V59.998H484.117C484.921 59.998 485.545 60.1852 485.987 60.5596C486.43 60.9339 486.651 61.4613 486.651 62.1416C486.651 62.8219 486.42 63.3786 485.958 63.8115C485.496 64.2445 484.871 64.4609 484.083 64.4609H483.15ZM483.15 60.9551V63.5137H483.902C484.4 63.5137 484.78 63.3981 485.04 63.167C485.3 62.9359 485.431 62.6104 485.431 62.1904C485.431 61.3669 484.952 60.9551 483.995 60.9551H483.15ZM492.18 67.1172C491.171 67.1172 490.362 66.79 489.753 66.1357C489.147 65.4814 488.845 64.6302 488.845 63.582C488.845 62.4557 489.154 61.5573 489.772 60.8867C490.391 60.2161 491.231 59.8809 492.292 59.8809C493.275 59.8809 494.066 60.2064 494.665 60.8574C495.267 61.5085 495.568 62.3597 495.568 63.4111C495.568 64.5537 495.261 65.457 494.646 66.1211C494.03 66.7852 493.208 67.1172 492.18 67.1172ZM492.233 60.9014C491.592 60.9014 491.07 61.1406 490.666 61.6191C490.266 62.0977 490.065 62.7275 490.065 63.5088C490.065 64.2868 490.261 64.9134 490.651 65.3887C491.042 65.8639 491.553 66.1016 492.185 66.1016C492.855 66.1016 493.384 65.8753 493.771 65.4229C494.159 64.9704 494.353 64.3372 494.353 63.5234C494.353 62.6868 494.164 62.0407 493.786 61.585C493.412 61.1292 492.894 60.9014 492.233 60.9014ZM502.425 60.9844H500.413V67H499.251V60.9844H497.244V59.998H502.425V60.9844ZM510.888 67H509.77V62.3369C509.77 61.917 509.786 61.6208 509.818 61.4482H509.789C509.734 61.5947 509.665 61.7298 509.584 61.8535L506.225 67H504.95V59.998H506.073V64.4512C506.073 64.9622 506.06 65.2959 506.034 65.4521H506.054C506.119 65.3219 506.203 65.1787 506.308 65.0225L509.55 59.998H510.888V67ZM514.126 67V59.998H516.348C517.025 59.998 517.56 60.1462 517.954 60.4424C518.351 60.7386 518.55 61.1243 518.55 61.5996C518.55 61.9967 518.438 62.3418 518.213 62.6348C517.988 62.9277 517.677 63.1361 517.28 63.2598V63.2793C517.762 63.3346 518.146 63.5137 518.433 63.8164C518.722 64.1159 518.867 64.5065 518.867 64.9883C518.867 65.5872 518.631 66.0723 518.159 66.4434C517.687 66.8145 517.091 67 516.372 67H514.126ZM515.283 60.9307V62.9229H516.035C516.439 62.9229 516.755 62.8285 516.982 62.6396C517.214 62.4476 517.329 62.1774 517.329 61.8291C517.329 61.2301 516.929 60.9307 516.128 60.9307H515.283ZM515.283 63.8555V66.0723H516.274C516.707 66.0723 517.041 65.973 517.275 65.7744C517.513 65.5726 517.632 65.2959 517.632 64.9443C517.632 64.2184 517.129 63.8555 516.123 63.8555H515.283ZM524.557 67.1172C523.548 67.1172 522.739 66.79 522.13 66.1357C521.524 65.4814 521.222 64.6302 521.222 63.582C521.222 62.4557 521.531 61.5573 522.149 60.8867C522.768 60.2161 523.608 59.8809 524.669 59.8809C525.652 59.8809 526.443 60.2064 527.042 60.8574C527.644 61.5085 527.945 62.3597 527.945 63.4111C527.945 64.5537 527.638 65.457 527.022 66.1211C526.407 66.7852 525.585 67.1172 524.557 67.1172ZM524.61 60.9014C523.969 60.9014 523.447 61.1406 523.043 61.6191C522.643 62.0977 522.442 62.7275 522.442 63.5088C522.442 64.2868 522.638 64.9134 523.028 65.3887C523.419 65.8639 523.93 66.1016 524.562 66.1016C525.232 66.1016 525.761 65.8753 526.148 65.4229C526.536 64.9704 526.729 64.3372 526.729 63.5234C526.729 62.6868 526.541 62.0407 526.163 61.585C525.789 61.1292 525.271 60.9014 524.61 60.9014ZM536.77 68.8896H535.729V67H530.974V68.8896H529.938V66.0137H530.529C530.969 65.1901 531.341 64.2298 531.647 63.1328C531.953 62.0326 532.126 60.9876 532.165 59.998H535.803V66.0137H536.77V68.8896ZM534.641 66.0137V60.999H533.127C533.081 61.7282 532.924 62.5827 532.653 63.5625C532.383 64.5423 532.082 65.3594 531.75 66.0137H534.641ZM543.416 67H539.485V59.998H543.26V60.9844H540.647V62.9668H543.055V63.9482H540.647V66.0186H543.416V67ZM552.099 67H550.98V62.3369C550.98 61.917 550.997 61.6208 551.029 61.4482H551C550.945 61.5947 550.876 61.7298 550.795 61.8535L547.436 67H546.161V59.998H547.284V64.4512C547.284 64.9622 547.271 65.2959 547.245 65.4521H547.265C547.33 65.3219 547.414 65.1787 547.519 65.0225L550.761 59.998H552.099V67ZM551.083 57.7812C551.031 58.2695 550.829 58.6553 550.478 58.9385C550.129 59.2184 549.691 59.3584 549.164 59.3584C548.624 59.3584 548.183 59.2184 547.841 58.9385C547.502 58.6553 547.317 58.2695 547.284 57.7812H548.227C548.272 58.3737 548.59 58.6699 549.179 58.6699C549.439 58.6699 549.654 58.5918 549.823 58.4355C549.996 58.2793 550.102 58.0612 550.141 57.7812H551.083ZM560.22 66.707C559.692 66.9805 559.036 67.1172 558.252 67.1172C557.236 67.1172 556.423 66.7965 555.811 66.1553C555.199 65.514 554.893 64.6725 554.893 63.6309C554.893 62.5111 555.236 61.6061 555.923 60.916C556.613 60.2259 557.484 59.8809 558.535 59.8809C559.212 59.8809 559.774 59.9769 560.22 60.1689V61.3213C559.748 61.0413 559.227 60.9014 558.657 60.9014C557.899 60.9014 557.284 61.1439 556.812 61.6289C556.343 62.1139 556.108 62.7617 556.108 63.5723C556.108 64.3438 556.328 64.959 556.768 65.418C557.207 65.8737 557.785 66.1016 558.501 66.1016C559.162 66.1016 559.735 65.9453 560.22 65.6328V66.707ZM567.54 60.9844H565.528V67H564.366V60.9844H562.359V59.998H567.54V60.9844ZM570.065 67V59.998H572.287C572.964 59.998 573.5 60.1462 573.894 60.4424C574.291 60.7386 574.489 61.1243 574.489 61.5996C574.489 61.9967 574.377 62.3418 574.152 62.6348C573.928 62.9277 573.617 63.1361 573.22 63.2598V63.2793C573.701 63.3346 574.086 63.5137 574.372 63.8164C574.662 64.1159 574.807 64.5065 574.807 64.9883C574.807 65.5872 574.571 66.0723 574.099 66.4434C573.627 66.8145 573.031 67 572.312 67H570.065ZM571.223 60.9307V62.9229H571.975C572.378 62.9229 572.694 62.8285 572.922 62.6396C573.153 62.4476 573.269 62.1774 573.269 61.8291C573.269 61.2301 572.868 60.9307 572.067 60.9307H571.223ZM571.223 63.8555V66.0723H572.214C572.647 66.0723 572.98 65.973 573.215 65.7744C573.452 65.5726 573.571 65.2959 573.571 64.9443C573.571 64.2184 573.068 63.8555 572.062 63.8555H571.223ZM583.548 67H582.43V62.3369C582.43 61.917 582.446 61.6208 582.479 61.4482H582.449C582.394 61.5947 582.326 61.7298 582.244 61.8535L578.885 67H577.61V59.998H578.733V64.4512C578.733 64.9622 578.72 65.2959 578.694 65.4521H578.714C578.779 65.3219 578.864 65.1787 578.968 65.0225L582.21 59.998H583.548V67ZM590.717 67H586.786V59.998H590.561V60.9844H587.948V62.9668H590.355V63.9482H587.948V66.0186H590.717V67ZM605.235 67H604.083V62.4688C604.083 62.0977 604.106 61.6436 604.151 61.1064H604.132C604.06 61.4124 603.997 61.6322 603.941 61.7656L601.852 67H601.051L598.956 61.8047C598.897 61.6517 598.836 61.4189 598.771 61.1064H598.751C598.777 61.3864 598.79 61.8438 598.79 62.4785V67H597.716V59.998H599.352L601.192 64.6611C601.332 65.0192 601.424 65.2861 601.466 65.4619H601.49C601.611 65.0941 601.708 64.8206 601.783 64.6416L603.658 59.998H605.235V67ZM611.35 67.1172C610.34 67.1172 609.532 66.79 608.923 66.1357C608.317 65.4814 608.015 64.6302 608.015 63.582C608.015 62.4557 608.324 61.5573 608.942 60.8867C609.561 60.2161 610.401 59.8809 611.462 59.8809C612.445 59.8809 613.236 60.2064 613.835 60.8574C614.437 61.5085 614.738 62.3597 614.738 63.4111C614.738 64.5537 614.431 65.457 613.815 66.1211C613.2 66.7852 612.378 67.1172 611.35 67.1172ZM611.403 60.9014C610.762 60.9014 610.24 61.1406 609.836 61.6191C609.436 62.0977 609.235 62.7275 609.235 63.5088C609.235 64.2868 609.431 64.9134 609.821 65.3887C610.212 65.8639 610.723 66.1016 611.354 66.1016C612.025 66.1016 612.554 65.8753 612.941 65.4229C613.329 64.9704 613.522 64.3372 613.522 63.5234C613.522 62.6868 613.334 62.0407 612.956 61.585C612.582 61.1292 612.064 60.9014 611.403 60.9014ZM625.555 67H617.522V59.998H618.685V65.9844H620.96V59.998H622.117V65.9844H624.393V59.998H625.555V67ZM632.729 67H628.798V59.998H632.572V60.9844H629.96V62.9668H632.367V63.9482H629.96V66.0186H632.729V67ZM641.099 67H639.932V63.9629H636.636V67H635.474V59.998H636.636V62.9424H639.932V59.998H641.099V67ZM649.952 67H648.785V63.9629H645.489V67H644.327V59.998H645.489V62.9424H648.785V59.998H649.952V67ZM659.118 67H658V62.3369C658 61.917 658.016 61.6208 658.049 61.4482H658.02C657.964 61.5947 657.896 61.7298 657.814 61.8535L654.455 67H653.181V59.998H654.304V64.4512C654.304 64.9622 654.291 65.2959 654.265 65.4521H654.284C654.349 65.3219 654.434 65.1787 654.538 65.0225L657.78 59.998H659.118V67ZM667.479 67H666.316V64.0166C665.584 64.3942 664.904 64.583 664.275 64.583C663.628 64.583 663.126 64.4202 662.771 64.0947C662.42 63.766 662.244 63.3053 662.244 62.7129V59.998H663.401V62.5029C663.401 63.2288 663.772 63.5918 664.515 63.5918C665.042 63.5918 665.643 63.4225 666.316 63.084V59.998H667.479V67ZM674.691 67H670.761V59.998H674.535V60.9844H671.923V62.9668H674.33V63.9482H671.923V66.0186H674.691V67ZM682.319 66.707C681.792 66.9805 681.136 67.1172 680.352 67.1172C679.336 67.1172 678.522 66.7965 677.91 66.1553C677.298 65.514 676.992 64.6725 676.992 63.6309C676.992 62.5111 677.336 61.6061 678.022 60.916C678.713 60.2259 679.583 59.8809 680.635 59.8809C681.312 59.8809 681.873 59.9769 682.319 60.1689V61.3213C681.847 61.0413 681.326 60.9014 680.757 60.9014C679.998 60.9014 679.383 61.1439 678.911 61.6289C678.442 62.1139 678.208 62.7617 678.208 63.5723C678.208 64.3438 678.428 64.959 678.867 65.418C679.307 65.8737 679.884 66.1016 680.601 66.1016C681.261 66.1016 681.834 65.9453 682.319 65.6328V66.707ZM689.64 60.9844H687.628V67H686.466V60.9844H684.459V59.998H689.64V60.9844ZM692.165 67V59.998H694.387C695.064 59.998 695.599 60.1462 695.993 60.4424C696.39 60.7386 696.589 61.1243 696.589 61.5996C696.589 61.9967 696.477 62.3418 696.252 62.6348C696.027 62.9277 695.716 63.1361 695.319 63.2598V63.2793C695.801 63.3346 696.185 63.5137 696.472 63.8164C696.761 64.1159 696.906 64.5065 696.906 64.9883C696.906 65.5872 696.67 66.0723 696.198 66.4434C695.726 66.8145 695.131 67 694.411 67H692.165ZM693.322 60.9307V62.9229H694.074C694.478 62.9229 694.794 62.8285 695.021 62.6396C695.253 62.4476 695.368 62.1774 695.368 61.8291C695.368 61.2301 694.968 60.9307 694.167 60.9307H693.322ZM693.322 63.8555V66.0723H694.313C694.746 66.0723 695.08 65.973 695.314 65.7744C695.552 65.5726 695.671 65.2959 695.671 64.9443C695.671 64.2184 695.168 63.8555 694.162 63.8555H693.322ZM704.783 59.998L702.605 64.8467C702.202 65.7288 701.811 66.3294 701.434 66.6484C701.059 66.9642 700.649 67.1221 700.203 67.1221C699.848 67.1221 699.552 67.0716 699.314 66.9707V65.8623C699.598 66.0316 699.869 66.1162 700.13 66.1162C700.361 66.1162 700.573 66.0283 700.765 65.8525C700.96 65.6768 701.17 65.3675 701.395 64.9248L699.056 59.998H700.379L701.824 63.3184C701.854 63.3867 701.91 63.556 701.995 63.8262H702.005C702.015 63.7936 702.076 63.6243 702.19 63.3184L703.553 59.998H704.783Z" fill="black"/>
<path d="M248.314 64.7363C247.84 64.9824 247.25 65.1055 246.543 65.1055C245.629 65.1055 244.897 64.8169 244.346 64.2397C243.795 63.6626 243.52 62.9053 243.52 61.9678C243.52 60.96 243.829 60.1455 244.447 59.5244C245.068 58.9033 245.852 58.5928 246.798 58.5928C247.408 58.5928 247.913 58.6792 248.314 58.8521V59.8892C247.89 59.6372 247.421 59.5112 246.908 59.5112C246.226 59.5112 245.672 59.7295 245.247 60.166C244.825 60.6025 244.614 61.1855 244.614 61.915C244.614 62.6094 244.812 63.1631 245.208 63.5762C245.603 63.9863 246.123 64.1914 246.768 64.1914C247.362 64.1914 247.878 64.0508 248.314 63.7695V64.7363ZM256.037 65H254.89L254.323 63.396H251.844L251.299 65H250.157L252.517 58.6982H253.694L256.037 65ZM254.046 62.5435L253.171 60.0298C253.145 59.9478 253.117 59.8159 253.088 59.6343H253.07C253.044 59.8013 253.015 59.9331 252.982 60.0298L252.117 62.5435H254.046ZM263.6 65H262.594V60.8032C262.594 60.4253 262.609 60.1587 262.638 60.0034H262.612C262.562 60.1353 262.5 60.2568 262.427 60.3682L259.404 65H258.257V58.6982H259.267V62.7061C259.267 63.166 259.256 63.4663 259.232 63.6069H259.25C259.308 63.4897 259.385 63.3608 259.478 63.2202L262.396 58.6982H263.6V65ZM262.686 56.7031C262.639 57.1426 262.458 57.4897 262.141 57.7446C261.828 57.9966 261.434 58.1226 260.959 58.1226C260.473 58.1226 260.076 57.9966 259.768 57.7446C259.464 57.4897 259.297 57.1426 259.267 56.7031H260.116C260.157 57.2363 260.442 57.5029 260.972 57.5029C261.207 57.5029 261.4 57.4326 261.553 57.292C261.708 57.1514 261.803 56.9551 261.838 56.7031H262.686ZM270.558 59.5859H268.747V65H267.701V59.5859H265.895V58.6982H270.558V59.5859ZM280.148 59.6035H277.705V65H276.659V58.6982H280.148V59.6035ZM283.463 62.7148V65H282.421V58.6982H284.333C285.057 58.6982 285.618 58.8667 286.016 59.2036C286.414 59.5405 286.614 60.0151 286.614 60.6274C286.614 61.2397 286.406 61.7407 285.99 62.1304C285.574 62.52 285.011 62.7148 284.302 62.7148H283.463ZM283.463 59.5596V61.8623H284.14C284.588 61.8623 284.929 61.7583 285.163 61.5503C285.398 61.3423 285.515 61.0493 285.515 60.6714C285.515 59.9302 285.084 59.5596 284.223 59.5596H283.463ZM293.505 58.6982L291.545 63.062C291.182 63.856 290.83 64.3965 290.491 64.6836C290.154 64.9678 289.784 65.1099 289.383 65.1099C289.064 65.1099 288.797 65.0645 288.583 64.9736V63.9761C288.838 64.1284 289.083 64.2046 289.317 64.2046C289.525 64.2046 289.716 64.1255 289.888 63.9673C290.064 63.8091 290.253 63.5308 290.455 63.1323L288.35 58.6982H289.541L290.842 61.6865C290.868 61.748 290.92 61.9004 290.996 62.1436H291.005C291.013 62.1143 291.069 61.9619 291.172 61.6865L292.398 58.6982H293.505ZM300.674 65H299.623V59.6343H296.635V65H295.589V58.6982H300.674V65ZM308.65 65H307.6V59.6343H304.612V65H303.566V58.6982H308.65V65ZM317.498 65H316.456V58.6982H317.498V65ZM311.543 65V58.6982H312.584V61.2339H313.661C314.329 61.2339 314.849 61.3892 315.221 61.6997C315.593 62.0103 315.779 62.4526 315.779 63.0269C315.779 63.6362 315.583 64.1182 315.19 64.4727C314.801 64.8242 314.269 65 313.595 65H311.543ZM312.584 62.082V64.1475H313.49C313.871 64.1475 314.164 64.0552 314.369 63.8706C314.577 63.686 314.681 63.4282 314.681 63.0972C314.681 62.4204 314.284 62.082 313.49 62.082H312.584ZM327.725 59.6035H325.282V65H324.236V58.6982H327.725V59.6035ZM334.604 65H333.457L332.89 63.396H330.411L329.866 65H328.724L331.084 58.6982H332.261L334.604 65ZM332.613 62.5435L331.738 60.0298C331.712 59.9478 331.684 59.8159 331.655 59.6343H331.637C331.611 59.8013 331.582 59.9331 331.55 60.0298L330.684 62.5435H332.613ZM336.42 64.7539V63.752C336.915 64.1035 337.477 64.2793 338.107 64.2793C338.52 64.2793 338.848 64.1841 339.091 63.9937C339.338 63.8003 339.461 63.5425 339.461 63.2202C339.461 62.5171 338.964 62.1655 337.971 62.1655H337.246V61.3481H337.927C338.349 61.3481 338.675 61.2603 338.907 61.0845C339.138 60.9087 339.254 60.6611 339.254 60.3418C339.254 60.0664 339.156 59.8467 338.96 59.6826C338.763 59.5156 338.494 59.4321 338.151 59.4321C337.629 59.4321 337.121 59.5903 336.626 59.9067V58.9751C337.112 58.7202 337.673 58.5928 338.309 58.5928C338.942 58.5928 339.44 58.7378 339.803 59.0278C340.167 59.3149 340.348 59.6929 340.348 60.1616C340.348 60.9731 339.942 61.4858 339.131 61.6997V61.7173C339.565 61.7671 339.909 61.9282 340.164 62.2007C340.421 62.4731 340.55 62.8101 340.55 63.2114C340.55 63.7886 340.335 64.2485 339.904 64.5913C339.474 64.9341 338.885 65.1055 338.138 65.1055C337.397 65.1055 336.824 64.9883 336.42 64.7539ZM348.198 65H347.147V59.6343H344.159V65H343.113V58.6982H348.198V65ZM352.132 62.7148V65H351.09V58.6982H353.002C353.725 58.6982 354.287 58.8667 354.685 59.2036C355.083 59.5405 355.283 60.0151 355.283 60.6274C355.283 61.2397 355.075 61.7407 354.659 62.1304C354.243 62.52 353.68 62.7148 352.971 62.7148H352.132ZM352.132 59.5596V61.8623H352.808C353.257 61.8623 353.598 61.7583 353.832 61.5503C354.067 61.3423 354.184 61.0493 354.184 60.6714C354.184 59.9302 353.753 59.5596 352.892 59.5596H352.132ZM360.258 65.1055C359.35 65.1055 358.622 64.811 358.074 64.2222C357.529 63.6333 357.257 62.8672 357.257 61.9238C357.257 60.9102 357.535 60.1016 358.092 59.498C358.648 58.8945 359.404 58.5928 360.359 58.5928C361.244 58.5928 361.956 58.8857 362.495 59.4717C363.037 60.0576 363.308 60.8237 363.308 61.77C363.308 62.7983 363.031 63.6113 362.477 64.209C361.924 64.8066 361.184 65.1055 360.258 65.1055ZM360.306 59.5112C359.729 59.5112 359.259 59.7266 358.896 60.1572C358.535 60.5879 358.355 61.1548 358.355 61.8579C358.355 62.5581 358.531 63.1221 358.883 63.5498C359.234 63.9775 359.694 64.1914 360.262 64.1914C360.866 64.1914 361.342 63.9878 361.691 63.5806C362.039 63.1733 362.214 62.6035 362.214 61.8711C362.214 61.1182 362.044 60.5366 361.704 60.1265C361.367 59.7163 360.901 59.5112 360.306 59.5112ZM372.581 65H371.544V60.9219C371.544 60.5879 371.565 60.1792 371.606 59.6958H371.588C371.524 59.9712 371.467 60.1689 371.417 60.2891L369.536 65H368.815L366.93 60.3242C366.877 60.1865 366.821 59.9771 366.763 59.6958H366.745C366.769 59.9478 366.78 60.3594 366.78 60.9307V65H365.814V58.6982H367.286L368.943 62.895C369.069 63.2173 369.151 63.4575 369.189 63.6157H369.211C369.319 63.2847 369.407 63.0386 369.474 62.8774L371.162 58.6982H372.581V65Z" fill="#0079C2"/>
<path d="M215.785 62.1421C215.781 62.5301 215.855 62.915 216.001 63.2743C216.148 63.6335 216.365 63.9599 216.639 64.2343C216.914 64.5087 217.24 64.7255 217.599 64.8722C217.958 65.0189 218.343 65.0924 218.731 65.0884L223.445 65.0884C224.227 65.0884 224.976 64.778 225.529 64.2255C226.081 63.6729 226.392 62.9235 226.392 62.1421C226.392 61.3607 226.081 60.6113 225.529 60.0588C224.976 59.5063 224.227 59.1959 223.445 59.1959L222.856 59.1959" stroke="#0079C2" stroke-width="1.5" stroke-linecap="round" stroke-linejoin="round"/>
<path d="M220.499 62.1421C220.503 61.7541 220.43 61.3692 220.283 61.01C220.136 60.6507 219.919 60.3244 219.645 60.05C219.371 59.7756 219.044 59.5587 218.685 59.4121C218.326 59.2654 217.941 59.1919 217.553 59.1959L212.839 59.1959C212.057 59.1959 211.308 59.5063 210.755 60.0588C210.203 60.6113 209.893 61.3607 209.893 62.1421C209.893 62.9235 210.203 63.6729 210.755 64.2255C211.308 64.778 212.057 65.0884 212.839 65.0884L213.428 65.0884" stroke="#0079C2" stroke-width="1.5" stroke-linecap="round" stroke-linejoin="round"/>
<path d="M1627.96 63.4609V66H1626.8V58.998H1628.92C1629.73 58.998 1630.35 59.1852 1630.79 59.5596C1631.24 59.9339 1631.46 60.4613 1631.46 61.1416C1631.46 61.8219 1631.23 62.3786 1630.76 62.8115C1630.3 63.2445 1629.68 63.4609 1628.89 63.4609H1627.96ZM1627.96 59.9551V62.5137H1628.71C1629.21 62.5137 1629.59 62.3981 1629.85 62.167C1630.11 61.9359 1630.24 61.6104 1630.24 61.1904C1630.24 60.3669 1629.76 59.9551 1628.8 59.9551H1627.96ZM1639.11 58.998L1636.94 63.8467C1636.53 64.7288 1636.14 65.3294 1635.76 65.6484C1635.39 65.9642 1634.98 66.1221 1634.53 66.1221C1634.18 66.1221 1633.88 66.0716 1633.65 65.9707V64.8623C1633.93 65.0316 1634.2 65.1162 1634.46 65.1162C1634.69 65.1162 1634.9 65.0283 1635.1 64.8525C1635.29 64.6768 1635.5 64.3675 1635.73 63.9248L1633.39 58.998H1634.71L1636.16 62.3184C1636.18 62.3867 1636.24 62.556 1636.33 62.8262H1636.34C1636.35 62.7936 1636.41 62.6243 1636.52 62.3184L1637.88 58.998H1639.11Z" fill="#0079C2"/>
<path d="M1660.88 66H1656.95V58.998H1660.73V59.9844H1658.11V61.9668H1660.52V62.9482H1658.11V65.0186H1660.88V66ZM1669.57 66H1668.3L1664.95 60.8535C1664.87 60.7233 1664.8 60.5882 1664.74 60.4482H1664.71C1664.74 60.598 1664.75 60.9186 1664.75 61.4102V66H1663.63V58.998H1664.98L1668.21 64.0225C1668.35 64.2308 1668.44 64.374 1668.48 64.4521H1668.5C1668.46 64.2666 1668.45 63.9525 1668.45 63.5098V58.998H1669.57V66ZM1678.27 65.5215C1677.54 65.9186 1676.73 66.1172 1675.83 66.1172C1674.8 66.1172 1673.96 65.7949 1673.32 65.1504C1672.68 64.5059 1672.35 63.653 1672.35 62.5918C1672.35 61.5078 1672.7 60.6191 1673.4 59.9258C1674.11 59.2292 1675 58.8809 1676.08 58.8809C1676.86 58.8809 1677.51 58.9948 1678.04 59.2227V60.4189C1677.51 60.0609 1676.87 59.8818 1676.12 59.8818C1675.38 59.8818 1674.77 60.1276 1674.29 60.6191C1673.81 61.1107 1673.58 61.7471 1673.58 62.5283C1673.58 63.3324 1673.78 63.9655 1674.19 64.4277C1674.6 64.8867 1675.16 65.1162 1675.86 65.1162C1676.34 65.1162 1676.76 65.0234 1677.11 64.8379V63.1729H1675.64V62.1963H1678.27V65.5215Z" fill="#0079C2"/>
<rect x="445.25" y="40.25" width="286.5" height="45.5" stroke="#0079C2" stroke-width="0.5"/>
<rect x="1518.25" y="40.25" width="45.5" height="45.5" stroke="#0079C2" stroke-width="0.5"/>
<path d="M1540.33 63.1904C1542.04 63.1904 1543.43 61.8047 1543.43 60.0952C1543.43 58.3858 1542.04 57 1540.33 57C1538.62 57 1537.24 58.3858 1537.24 60.0952C1537.24 61.8047 1538.62 63.1904 1540.33 63.1904Z" stroke="#0079C2" stroke-width="1.5" stroke-linecap="round" stroke-linejoin="round"/>
<path d="M1536 70.0001V68.5557C1536 67.7895 1536.33 67.0547 1536.91 66.5129C1537.49 65.9712 1538.27 65.6668 1539.1 65.6668H1542.19C1543.01 65.6668 1543.8 65.9712 1544.38 66.5129C1544.96 67.0547 1545.29 67.7895 1545.29 68.5557V70.0001" stroke="#0079C2" stroke-width="1.5" stroke-linecap="round" stroke-linejoin="round"/>
<line x1="1624" y1="73.5" x2="1641" y2="73.5" stroke="#0079C2"/>
<rect x="0.5" y="0.5" width="1919" height="1079" fill="#0079C2" fill-opacity="0.5" stroke="#005F99"/>
</svg>
